<?xml version="1.0" standalone="no"?>
<!DOCTYPE svg PUBLIC "-//W3C//DTD SVG 20010904//EN"
 "http://www.w3.org/TR/2001/REC-SVG-20010904/DTD/svg10.dtd">
<svg version="1.0" xmlns="http://www.w3.org/2000/svg"
 width="444.000000pt" height="392.000000pt" viewBox="0 0 444.000000 392.000000"
 preserveAspectRatio="xMidYMid meet">

<g transform="translate(0.000000,392.000000) scale(0.100000,-0.100000)"
fill="#000000" stroke="none">
<path d="M1530 3844 c-30 -30 -58 -54 -63 -54 -5 0 -7 16 -4 35 3 20 2 35 -4
35 -19 0 -69 -31 -69 -42 0 -6 -2 -9 -5 -6 -3 3 -1 17 4 32 8 19 7 26 -2 26
-17 0 -33 -12 -41 -30 -3 -8 -4 -3 -1 12 3 16 0 28 -7 30 -13 5 -80 -30 -86
-44 -6 -14 -32 -8 -32 7 0 22 -13 19 -39 -9 -21 -22 -22 -28 -11 -63 7 -21 19
-50 27 -65 12 -24 12 -28 -1 -28 -16 0 -35 46 -42 105 -9 71 -12 73 -50 31
-31 -34 -35 -43 -30 -75 5 -29 4 -33 -5 -18 -10 17 -16 36 -19 62 -2 20 -40
-38 -40 -62 0 -14 -4 -21 -10 -18 -6 3 -13 0 -16 -9 -7 -17 -30 -11 -38 10 -3
9 -1 12 4 9 12 -7 13 25 1 43 -5 9 -13 0 -24 -30 -19 -50 -21 -74 -7 -83 6 -4
0 -18 -15 -37 -26 -31 -32 -53 -15 -63 15 -9 12 -62 -4 -68 -17 -7 -26 13 -26
59 0 41 -19 125 -31 139 -8 8 -14 -33 -10 -75 1 -8 -13 10 -29 40 l-31 55 6
-45 c5 -44 33 -96 51 -94 16 1 34 -24 28 -40 -7 -19 -18 -20 -36 -3 -7 6 -24
13 -37 15 -14 1 -33 10 -43 19 -17 15 -17 12 -11 -51 5 -59 4 -66 -11 -60 -9
3 -16 13 -16 21 0 8 -4 11 -10 8 -6 -3 -10 -19 -10 -34 0 -24 -5 -30 -32 -35
-24 -5 -37 -1 -56 16 -23 21 -25 22 -17 3 18 -47 17 -51 -12 -50 -24 0 -28 -3
-24 -25 1 -14 16 -40 32 -58 16 -18 29 -44 29 -57 0 -16 6 -25 15 -25 8 0 15
-7 15 -15 0 -23 -16 -18 -51 16 -17 17 -33 28 -35 26 -3 -2 2 -23 9 -45 14
-39 14 -41 -4 -31 -34 18 -14 -27 35 -80 29 -32 21 -35 -14 -5 -22 19 -69 34
-74 25 -3 -5 8 -28 24 -52 28 -42 43 -81 17 -46 -6 10 -34 24 -60 32 l-48 14
18 -30 c10 -17 28 -39 41 -49 14 -11 18 -20 10 -22 -8 -3 -9 -11 -3 -24 5 -10
9 -26 10 -35 5 -39 65 -94 65 -59 0 6 10 10 22 10 12 0 19 3 16 6 -4 3 -3 18
2 33 9 32 3 44 -23 54 -21 8 -14 27 11 27 9 0 28 9 41 19 13 10 32 16 42 14
11 -3 19 -1 19 3 0 5 11 22 25 38 30 35 30 34 3 63 -12 13 -17 23 -11 23 5 0
18 -9 28 -20 22 -24 38 -25 56 -4 11 14 13 14 21 -1 15 -26 28 -7 29 43 1 26
4 37 6 25 5 -28 18 -29 36 -3 13 19 15 19 46 4 21 -11 47 -15 72 -11 21 3 42
1 45 -5 10 -16 86 -48 116 -48 15 0 64 -18 110 -40 91 -45 108 -45 181 -5 23
13 61 26 83 30 39 6 43 4 56 -23 13 -26 13 -31 -4 -52 -14 -17 -19 -37 -17
-69 1 -25 -3 -57 -9 -71 -5 -14 -16 -39 -22 -57 -10 -28 -48 -64 -65 -63 -9 1
-55 -57 -55 -69 0 -5 -9 -15 -19 -21 -25 -13 -30 -45 -13 -94 20 -59 30 -75
60 -89 41 -21 163 -44 297 -57 168 -16 262 -59 236 -108 -19 -35 -60 -60 -119
-73 -82 -17 -119 -39 -189 -113 -35 -36 -69 -66 -77 -66 -19 0 -61 -52 -91
-111 l-25 -47 -65 5 c-38 3 -70 1 -78 -5 -6 -6 -34 -13 -62 -17 -43 -6 -57
-14 -97 -58 -26 -28 -49 -49 -51 -46 -2 2 -11 25 -21 52 -25 66 -80 99 -113
66 -15 -15 -28 -6 -64 43 -34 48 -39 88 -10 88 11 0 21 -5 23 -11 6 -19 72 -2
103 26 24 23 26 23 20 5 -11 -33 23 -24 45 12 21 35 27 74 10 63 -5 -3 -10 0
-10 7 -1 7 -20 -9 -44 -35 -46 -51 -101 -72 -131 -47 -12 10 -12 15 2 36 13
20 14 34 6 74 -9 42 -8 48 3 39 11 -9 14 -8 14 2 1 10 3 10 10 -2 12 -20 78
-15 95 7 9 13 16 10 49 -20 45 -43 55 -44 90 -11 34 32 49 32 35 1 -8 -17 -8
-29 1 -46 10 -19 17 -21 48 -15 20 4 50 13 67 20 29 13 29 14 8 20 -32 10 -29
20 10 32 l32 10 -37 8 c-21 4 -38 8 -38 9 0 0 4 17 10 36 9 34 9 34 -8 14 -9
-12 -22 -30 -28 -40 -9 -15 -11 -9 -9 33 2 29 -1 50 -6 47 -5 -3 -9 11 -9 31
0 22 -4 34 -10 30 -5 -3 -10 1 -10 11 0 14 -2 14 -16 3 -8 -7 -21 -26 -29 -43
l-13 -31 -1 43 c-1 31 3 42 14 42 9 0 20 11 25 24 5 13 15 27 22 30 7 3 2 3
-12 0 -14 -4 -35 -16 -47 -27 -13 -11 -23 -17 -23 -12 0 4 -10 0 -21 -11 l-21
-19 14 35 c8 19 18 53 22 74 7 37 7 39 -11 26 -10 -8 -30 -27 -45 -44 l-27
-31 -1 38 c0 41 -6 46 -25 20 -11 -15 -14 -14 -28 13 l-16 29 -14 -35 c-8 -19
-17 -42 -20 -50 -4 -12 -6 -11 -6 3 -1 9 -5 17 -11 17 -5 0 -12 11 -16 24 -9
36 -32 21 -36 -22 l-3 -37 -17 31 c-10 17 -14 34 -11 38 4 3 -1 6 -11 6 -9 0
-20 -9 -24 -21 -7 -18 -10 -19 -21 -5 -21 25 -41 8 -41 -36 0 -45 -23 -49 -28
-5 -2 17 -9 27 -19 27 -13 0 -15 -9 -10 -52 4 -38 2 -58 -8 -72 -13 -18 -14
-17 -21 9 -7 28 -19 24 -26 -10 -4 -16 -9 -11 -26 25 -21 44 -22 45 -22 14 0
-37 -26 -66 -40 -45 -6 11 -10 9 -19 -7 -21 -39 -10 -55 80 -117 45 -31 54
-34 61 -20 5 8 6 24 3 35 -12 38 20 21 37 -20 16 -38 16 -40 -2 -30 -10 6 -22
10 -27 10 -4 -1 13 -12 38 -25 25 -13 61 -39 80 -58 30 -30 34 -39 31 -80 -2
-33 4 -61 23 -101 14 -30 25 -63 23 -73 -2 -13 7 -19 38 -25 23 -5 49 -17 59
-27 22 -26 29 -125 9 -142 -8 -6 -14 -17 -14 -24 0 -6 -18 -20 -40 -30 -22
-10 -40 -21 -40 -25 0 -13 -53 -28 -122 -35 -90 -9 -308 30 -308 55 0 4 12 12
26 19 21 9 25 16 20 36 -8 30 2 31 50 5 34 -18 40 -18 73 -4 41 17 87 58 106
94 15 30 5 64 -24 79 -29 16 -39 13 -14 -4 30 -21 34 -51 12 -79 -21 -27 -87
-71 -95 -63 -12 12 11 91 32 110 16 14 24 31 24 54 0 34 -8 41 -27 22 -9 -9
-16 -7 -30 7 -17 17 -18 17 -21 -5 -2 -12 2 -29 8 -37 8 -9 9 -14 2 -14 -6 0
-20 12 -31 27 l-20 28 -1 -25 c0 -20 -2 -22 -10 -10 -5 8 -13 15 -17 15 -5 0
-16 7 -24 15 -15 13 -14 16 5 25 13 7 22 22 24 42 4 41 20 53 74 57 23 1 51 7
62 13 16 9 16 11 2 16 -15 6 -15 10 4 47 11 22 16 40 11 40 -5 0 -12 -4 -15
-9 -3 -5 -17 -11 -31 -14 l-26 -4 20 21 c19 21 25 37 22 65 -1 10 -10 6 -30
-13 -18 -17 -31 -24 -36 -17 -3 6 -16 9 -28 6 -12 -3 -30 0 -40 7 -15 11 -16
18 -7 42 16 43 2 45 -32 7 l-31 -34 5 34 c3 19 7 41 9 49 2 8 -2 15 -11 15 -8
0 -17 -14 -21 -33 -7 -35 -44 -78 -54 -63 -3 6 -6 30 -7 55 -1 25 -3 46 -5 46
-1 0 -9 -12 -17 -27 l-15 -28 -1 38 c0 20 -4 37 -9 37 -15 0 -24 -40 -23 -99
1 -38 -4 -60 -16 -76 l-18 -22 -1 36 c-3 61 -15 131 -22 131 -5 0 -13 -10 -18
-22 l-11 -23 -13 28 c-12 27 -14 27 -26 11 -26 -35 -14 -103 29 -166 l19 -27
-26 -7 c-24 -6 -25 -8 -10 -24 13 -14 13 -19 3 -23 -9 -3 -8 -9 7 -20 25 -19
40 -13 55 24 10 23 15 27 26 18 8 -6 21 -9 29 -5 11 4 15 -2 15 -22 0 -16 7
-37 15 -48 16 -21 20 -64 6 -64 -6 0 -13 5 -16 10 -14 22 -27 9 -21 -21 5 -27
4 -30 -9 -19 -12 10 -15 10 -15 -4 0 -19 -17 -22 -23 -3 -5 14 0 -13 9 -45 5
-19 0 -17 -24 12 -35 40 -88 53 -79 19 6 -23 -1 -24 -32 -3 -17 12 -25 14 -30
5 -4 -6 -15 -9 -24 -5 -21 8 -21 1 -2 -35 14 -28 13 -29 -10 -35 -26 -7 -35
-26 -12 -26 8 0 22 -10 33 -22 l19 -22 -27 17 c-34 21 -33 21 -35 -4 -3 -29
-10 -34 -28 -19 -12 10 -15 10 -15 -3 0 -8 7 -20 15 -27 17 -14 21 -35 5 -25
-5 3 -10 1 -10 -6 0 -8 -4 -8 -15 1 -47 39 -14 -38 43 -102 l37 -41 -30 7
c-16 4 -41 10 -54 13 -19 5 -22 3 -16 -8 48 -81 99 -112 140 -85 14 9 25 22
25 28 0 20 45 107 56 108 6 0 20 -11 31 -24 15 -17 28 -23 42 -19 31 8 35 22
15 44 -17 18 -10 25 19 20 5 -1 11 8 14 19 4 16 14 20 52 20 38 0 52 -5 72
-26 13 -14 50 -39 81 -55 31 -16 59 -33 62 -38 3 -5 37 -12 75 -16 58 -6 81
-3 132 14 33 12 70 19 81 16 10 -4 54 4 96 17 74 22 81 27 192 134 63 61 123
115 132 120 28 15 118 4 126 -15 3 -9 11 -20 18 -26 30 -26 35 -292 6 -355 -9
-19 -22 -39 -29 -43 -7 -4 -13 -15 -13 -22 0 -8 -3 -15 -8 -15 -14 0 -35 -44
-49 -103 -13 -58 -13 -61 11 -101 13 -22 36 -52 50 -65 14 -14 26 -29 26 -35
0 -26 70 -114 96 -120 31 -8 117 -47 124 -57 11 -15 128 -67 165 -73 36 -6 44
-3 89 34 26 22 51 40 55 40 3 0 20 13 36 28 42 39 91 58 109 43 9 -8 32 -10
64 -5 49 6 51 5 67 -25 9 -17 38 -47 65 -67 27 -20 53 -47 59 -64 6 -18 7 -79
4 -154 l-6 -124 -57 -94 c-52 -85 -59 -93 -85 -91 -25 2 -65 -11 -115 -37 -29
-14 -131 -28 -419 -57 -49 -5 -59 -11 -112 -62 -46 -45 -57 -62 -52 -79 5 -22
8 -22 182 -21 97 1 161 4 143 8 -42 8 -42 18 2 42 43 23 70 25 63 5 -7 -19 22
-29 60 -21 23 4 24 4 8 -4 l-20 -10 20 -1 20 -1 -20 -9 c-11 -5 352 -9 832 -9
l852 -1 -2 28 c-3 36 -9 42 -98 91 -53 29 -88 41 -116 41 -30 0 -50 8 -78 30
-21 17 -50 30 -65 30 -16 0 -52 11 -82 25 -29 13 -77 30 -107 37 -44 10 -57
18 -76 47 -12 20 -37 49 -54 65 -29 28 -41 31 -134 37 -20 1 -42 8 -48 16 -6
7 -25 13 -41 13 -25 0 -29 3 -22 17 11 27 17 109 10 148 -5 24 -24 51 -62 87
-66 63 -136 151 -153 194 -19 47 -55 77 -170 138 -87 46 -113 56 -154 56 -53
0 -127 -18 -127 -31 0 -11 -68 -29 -112 -29 -33 0 -38 3 -44 28 -3 15 -7 32
-9 38 -7 25 29 71 84 107 67 42 68 42 107 22 36 -19 53 -19 95 -1 33 14 93 11
84 -4 -3 -4 14 -8 38 -8 23 -1 74 -9 112 -18 86 -20 347 -23 369 -4 14 11 42
78 39 91 -3 10 31 8 54 -3 15 -8 34 -8 62 0 24 6 43 6 47 1 3 -5 13 -9 22 -9
16 1 16 1 1 10 -13 7 -15 20 -12 54 4 36 1 50 -16 72 -12 15 -19 30 -15 33 3
3 12 -3 20 -14 12 -16 18 -18 34 -7 16 10 18 9 14 -3 -8 -19 23 -32 39 -16 14
14 44 14 52 1 4 -7 -3 -8 -20 -4 -25 6 -26 5 -16 -14 19 -35 13 -69 -15 -91
-15 -12 -22 -21 -17 -21 20 0 56 50 57 80 1 16 7 32 14 35 8 3 42 -19 78 -48
47 -39 65 -60 70 -84 5 -28 11 -33 34 -33 17 0 37 -10 51 -25 33 -34 45 -31
19 5 l-21 30 51 0 c31 0 52 5 55 13 4 8 29 12 78 12 70 -1 75 -2 120 -40 26
-22 50 -50 54 -62 3 -13 10 -23 15 -23 5 0 22 -9 36 -21 67 -51 104 -69 143
-69 51 0 79 -15 79 -41 0 -11 4 -18 10 -14 5 3 7 12 3 20 -7 21 3 19 40 -9 25
-18 87 -46 103 -46 2 0 -2 14 -8 31 -13 38 -82 109 -126 130 -30 15 -31 16
-15 38 14 20 21 22 62 17 44 -6 49 -4 84 32 26 26 36 44 31 56 -4 11 2 25 19
40 26 24 45 71 34 83 -3 3 -20 -5 -36 -17 -35 -24 -51 -20 -51 14 0 28 14 41
55 50 37 9 57 25 48 39 -4 6 -1 7 6 3 7 -5 10 -14 7 -22 -10 -26 19 -25 67 2
26 14 47 28 47 31 0 3 -14 3 -32 1 l-32 -5 32 28 c33 30 28 45 -14 35 -16 -4
-24 -2 -24 6 -1 16 -70 -61 -70 -77 0 -7 -10 -15 -22 -19 -36 -9 -41 -7 -35
14 7 28 1 26 -53 -20 -56 -47 -100 -53 -124 -18 -21 30 -20 51 3 72 17 15 20
15 34 1 21 -20 25 -19 70 12 37 26 38 27 17 35 -12 4 -27 5 -33 1 -6 -4 -1 8
12 25 l22 32 -21 0 c-17 0 -20 4 -15 23 5 17 -1 13 -25 -15 -18 -21 -37 -38
-43 -38 -7 0 -5 6 4 13 28 21 55 88 29 72 -6 -3 -10 4 -10 17 0 18 -2 20 -10
8 -11 -17 -14 -9 -25 55 l-7 40 -23 -27 c-26 -30 -35 -27 -35 14 0 28 -13 37
-25 18 -12 -19 -25 -10 -25 17 0 26 0 26 -21 7 -21 -19 -22 -19 -15 2 4 12 4
29 0 38 -6 16 -8 16 -25 0 -18 -16 -19 -16 -19 1 0 16 -5 14 -30 -10 l-30 -29
0 28 c0 15 -4 25 -10 21 -6 -3 -10 -2 -10 3 0 16 -49 10 -55 -7 -6 -14 -8 -14
-22 4 -11 14 -17 16 -20 8 -7 -18 -23 -16 -23 2 0 22 -18 18 -25 -5 -3 -11
-11 -20 -16 -20 -5 0 -9 -7 -9 -15 0 -21 -18 -19 -32 5 -7 11 -16 20 -19 20
-9 0 -29 -48 -29 -70 0 -18 -6 -22 -26 -19 -4 0 -11 -5 -15 -13 -6 -9 -9 -6
-9 11 0 20 -2 21 -15 11 -10 -9 -15 -31 -15 -72 l0 -60 -32 33 c-32 33 -33 33
-36 11 l-3 -23 -36 22 -35 22 15 -29 c20 -39 54 -69 100 -88 20 -8 37 -22 37
-30 0 -23 63 -66 111 -75 31 -5 43 -12 40 -22 -2 -8 -6 -29 -9 -46 -2 -18 -9
-33 -16 -33 -6 1 -73 9 -149 19 -126 16 -140 20 -168 47 -17 16 -38 43 -46 59
-37 70 -167 256 -201 287 -20 18 -61 49 -89 67 l-53 34 28 17 c15 10 43 16 64
15 29 -2 37 2 42 18 9 34 97 18 179 -32 36 -22 67 -35 69 -30 2 7 13 6 30 -2
23 -10 31 -9 51 4 23 15 31 39 39 109 1 9 6 14 10 12 4 -3 8 0 8 5 0 6 15 11
34 11 41 0 72 10 58 19 -7 4 -7 21 1 49 8 31 8 47 0 61 -8 13 -7 23 8 42 10
13 19 20 19 14 0 -5 6 -2 11 9 13 20 40 129 34 134 -2 2 -12 -9 -21 -24 l-18
-27 -7 24 c-6 23 -7 23 -21 -10 -9 -18 -18 -29 -22 -23 -8 13 -42 8 -62 -9 -8
-7 -17 -9 -21 -6 -9 10 26 56 57 76 23 13 27 20 18 29 -9 9 -8 15 7 25 10 8
14 17 8 20 -13 8 -83 -14 -83 -26 0 -6 -16 -30 -36 -53 -25 -31 -33 -50 -29
-64 5 -15 0 -22 -20 -30 -15 -6 -37 -7 -50 -4 -16 4 -31 -1 -46 -15 -28 -25
-53 -14 -76 34 -17 36 -18 35 39 96 18 20 36 29 56 29 17 0 56 13 87 30 31 16
68 30 81 30 17 0 24 6 24 20 0 13 7 20 20 20 24 0 27 15 4 24 -29 11 -63 6
-98 -15 -20 -12 -36 -17 -36 -11 0 5 6 12 14 15 11 5 46 60 46 74 0 4 -26 -3
-55 -14 -6 -2 -12 13 -13 34 -4 47 -7 50 -32 28 -20 -18 -20 -18 -20 23 0 53
-12 59 -44 21 -22 -26 -27 -28 -33 -14 -5 15 -8 15 -25 -6 l-20 -24 6 26 c4
18 1 29 -8 32 -8 3 -17 20 -21 38 -5 23 -10 28 -16 18 -4 -8 -14 -14 -21 -14
-7 0 -17 -15 -23 -32 -11 -38 -21 -42 -30 -12 -4 13 -12 18 -21 15 -9 -3 -25
6 -39 22 -20 21 -26 24 -34 13 -5 -7 -14 -10 -20 -7 -7 4 -11 -1 -11 -13 0
-31 -19 -35 -32 -7 -16 36 -26 33 -47 -15 l-19 -41 -12 36 c-13 42 -25 40 -36
-7 -4 -19 -9 -26 -12 -17 -3 10 -10 2 -17 -20 l-12 -35 -13 28 c-7 15 -17 27
-21 27 -14 0 -22 -48 -16 -98 4 -39 3 -44 -8 -29 -15 21 -25 22 -25 1 0 -8 -4
-12 -10 -9 -6 4 -10 -11 -10 -39 0 -59 35 -105 67 -88 11 6 23 18 27 27 3 8
13 15 22 15 12 0 15 7 11 25 -4 24 -3 24 13 10 9 -8 21 -15 27 -15 28 0 20
-33 -16 -68 -62 -59 -66 -141 -9 -195 15 -15 17 -27 12 -66 -8 -64 5 -86 66
-106 48 -16 51 -16 76 4 25 20 27 20 40 4 19 -25 17 -33 -6 -33 -11 0 -27 -11
-36 -25 -8 -13 -34 -35 -57 -48 -36 -22 -53 -25 -127 -23 -75 1 -91 5 -135 31
-79 46 -313 163 -371 185 -73 27 -161 40 -212 30 -23 -4 -42 -4 -42 -1 0 4 27
24 60 45 46 29 60 44 60 62 0 14 5 33 12 44 10 15 8 29 -9 72 -12 29 -23 71
-25 93 -3 37 -1 40 25 43 18 2 43 -6 68 -22 40 -27 119 -37 119 -15 0 14 73 7
117 -12 28 -11 37 -11 66 3 20 10 39 29 47 47 10 25 15 29 26 20 11 -9 16 -5
24 16 5 14 10 37 10 50 0 12 7 36 15 51 8 16 15 38 15 49 0 19 -2 18 -19 -4
l-19 -24 -11 51 c-6 28 -8 58 -5 67 3 8 3 15 -1 15 -12 0 -32 -25 -40 -50 -8
-24 -8 -24 -16 -5 -4 11 -8 37 -8 58 -1 23 -5 36 -11 32 -6 -3 -10 4 -10 17
-1 21 -1 22 -11 5 -6 -10 -9 -34 -7 -53 l4 -34 -23 21 -22 22 -7 -27 c-3 -14
-10 -24 -14 -21 -17 10 -31 -60 -19 -96 6 -19 13 -41 15 -49 8 -24 24 11 17
37 -5 23 3 29 23 15 7 -4 8 -15 4 -27 -10 -29 9 -76 44 -108 l31 -29 -24 -19
c-27 -22 -66 -24 -101 -4 -16 9 -56 14 -113 15 -84 0 -147 17 -147 39 0 4 26
12 58 18 47 9 61 8 80 -4 30 -19 36 -12 34 40 0 23 1 36 4 30 8 -18 21 -16 28
3 7 17 -29 94 -44 94 -6 0 -10 -5 -10 -11 0 -6 -12 3 -26 20 -31 37 -47 31
-42 -16 4 -32 3 -33 -10 -17 -33 46 -34 54 -5 66 15 7 40 22 54 34 16 12 48
24 80 27 39 5 59 13 76 32 13 14 19 22 14 17 -6 -4 -42 -6 -80 -4 -68 4 -71 5
-71 29 0 14 -12 37 -29 53 l-28 29 28 6 c25 6 27 9 17 31 -8 16 -8 31 -1 46
10 23 10 22 27 -9 17 -33 48 -57 60 -46 3 3 6 -8 6 -25 0 -18 5 -32 10 -32 6
0 13 -1 18 -2 4 -1 9 11 12 26 3 17 19 39 39 55 32 24 33 24 23 4 -18 -32 -14
-52 4 -28 23 30 49 83 33 68 -7 -7 -19 -13 -27 -13 -12 0 -12 3 -2 15 21 25
-2 17 -32 -12 l-28 -27 0 32 c0 23 -4 30 -14 26 -9 -4 -16 3 -19 18 -3 17 -5
13 -6 -12 -2 -33 -2 -34 -16 -16 -22 29 -18 45 11 52 27 7 84 76 84 102 0 9
-18 -3 -44 -30 -24 -26 -55 -48 -68 -50 -18 -2 -23 -9 -21 -31 2 -36 -4 -34
-21 6 -8 17 -15 26 -15 19 -1 -7 -5 -10 -11 -7 -6 4 -10 -9 -10 -32 0 -38 -19
-86 -21 -53 0 10 -3 9 -8 -4 -6 -16 -12 -14 -44 24 l-37 44 0 -30 c0 -16 4
-35 9 -43 6 -10 5 -22 -5 -35 -20 -28 -18 -33 16 -51 38 -20 70 -54 70 -76 0
-10 6 -19 12 -21 18 -6 -56 -74 -89 -82 -33 -9 -36 -5 -28 36 6 31 9 34 40 30
38 -5 57 15 30 31 -10 5 -38 29 -63 53 -25 24 -46 44 -48 44 -2 0 -4 -12 -4
-26 0 -27 16 -65 33 -75 7 -5 -4 -31 -30 -68 -1 -2 -13 3 -26 12 -31 20 -38
58 -25 121 9 42 8 52 -8 73 -11 14 -37 32 -59 41 -22 8 -41 16 -43 18 -2 1 4
13 13 27 13 20 168 107 190 107 3 0 5 -7 5 -16 0 -13 7 -15 29 -11 18 4 31 2
33 -5 5 -15 87 22 112 51 11 11 27 21 37 21 17 0 69 57 69 75 0 4 -12 -1 -26
-10 l-27 -17 7 32 c6 33 6 33 -14 15 -20 -18 -20 -17 -17 30 3 44 2 46 -11 26
-8 -11 -22 -21 -31 -21 -9 0 -33 -14 -54 -31 -25 -21 -37 -26 -37 -16 0 8 6
17 14 20 22 9 43 47 50 92 l7 40 -26 -30 c-15 -16 -24 -22 -21 -13 6 19 -18
43 -34 33 -5 -3 -10 2 -10 12 -1 13 -10 8 -36 -22 -22 -24 -33 -32 -29 -20 13
38 17 75 10 75 -5 0 -16 -7 -26 -16 -16 -14 -18 -14 -24 5 -8 27 -21 27 -28 0
-3 -12 -10 -18 -16 -14 -6 3 -15 -4 -19 -16 -8 -21 -9 -20 -16 12 l-7 34 -19
-25 c-16 -21 -20 -22 -20 -7 0 10 -4 16 -9 13 -5 -4 -7 4 -3 16 4 19 3 21 -9
12 -21 -16 -49 -25 -49 -15 0 5 14 25 30 46 31 39 33 59 4 35 -11 -10 -18 -10
-22 -3 -4 6 -19 9 -34 8 -26 -3 -28 -1 -28 33 l0 35 -24 -22 -24 -23 9 39 c12
51 10 74 -3 46 -6 -12 -16 -24 -22 -26 -13 -5 -57 27 -55 40 5 31 -3 36 -21
14 l-20 -23 0 31 c0 38 3 47 13 44 4 -2 7 2 7 8 0 16 -63 6 -78 -13 -14 -19
-52 -20 -52 -1 0 7 9 22 20 33 16 16 40 72 29 69 -2 -1 -29 -25 -59 -55z m-64
-160 c-3 -8 -10 -14 -16 -14 -14 0 -12 47 3 53 14 5 21 -17 13 -39z m-69 -21
c-3 -10 -5 -4 -5 12 0 17 2 24 5 18 2 -7 2 -21 0 -30z m-357 -9 c0 6 6 1 14
-10 8 -10 13 -21 10 -23 -6 -6 -44 31 -44 43 0 6 5 4 10 -4 5 -8 10 -11 10 -6z
m278 -16 c-4 -26 -22 -23 -29 6 -6 20 -3 23 13 18 12 -3 18 -12 16 -24z m207
-7 c3 -5 1 -12 -5 -16 -5 -3 -10 1 -10 9 0 18 6 21 15 7z m45 -71 c-6 -22 -15
-38 -20 -35 -5 3 -12 -4 -15 -16 -4 -11 -9 -18 -12 -15 -8 8 28 86 39 86 4 0
8 10 9 23 0 12 3 17 5 10 3 -6 0 -30 -6 -53z m-600 34 c0 -2 -9 -8 -20 -14
-17 -9 -20 -8 -20 9 0 14 5 18 20 14 11 -3 20 -7 20 -9z m750 12 c0 -3 -4 -8
-10 -11 -5 -3 -10 -1 -10 4 0 6 5 11 10 11 6 0 10 -2 10 -4z m-240 -10 c0 -3
-4 -8 -10 -11 -5 -3 -10 -1 -10 4 0 6 5 11 10 11 6 0 10 -2 10 -4z m-330 -25
c11 -22 47 -18 66 7 9 13 12 12 19 -4 4 -10 7 -32 6 -48 -2 -16 3 -32 9 -36 7
-4 9 -13 5 -20 -5 -8 -13 -5 -27 10 -12 12 -23 18 -27 12 -3 -5 -17 -9 -31 -8
-19 1 -25 -4 -25 -20 0 -12 -15 -35 -34 -53 l-34 -31 7 40 c3 22 2 40 -3 40
-5 0 -11 14 -15 32 -9 45 -35 72 -54 55 -13 -11 -14 -9 -1 11 11 18 20 22 41
18 15 -3 29 -2 32 2 10 16 56 11 66 -7z m306 -33 c-9 -12 -16 -17 -16 -10 0
14 23 42 29 37 1 -2 -4 -14 -13 -27z m277 20 c-14 -18 -23 -58 -13 -58 4 0 27
16 50 35 23 19 46 35 52 35 10 0 1 -38 -13 -56 -5 -5 -6 -28 -3 -50 l6 -39
-21 25 c-19 23 -21 23 -21 5 0 -17 -2 -17 -10 -5 -8 13 -10 12 -10 -3 0 -10
-4 -15 -10 -12 -6 4 -10 -10 -10 -34 0 -22 -9 -55 -19 -73 -19 -32 -24 -55
-22 -91 1 -20 93 -122 134 -147 l28 -17 -40 -7 -40 -6 6 -49 c7 -59 -7 -72
-48 -42 -29 21 -49 27 -49 13 0 -10 75 -42 98 -42 15 0 19 9 20 42 1 23 5 44
8 47 3 3 27 7 52 8 26 1 57 3 70 4 13 0 32 -7 44 -17 17 -16 19 -26 12 -64 -4
-25 -8 -63 -8 -84 -1 -38 -3 -40 -50 -60 l-49 -20 -46 26 c-25 14 -57 29 -71
33 -14 4 -49 19 -78 32 l-53 25 6 62 c5 51 3 66 -14 94 -18 27 -27 32 -58 32
-21 0 -65 -12 -98 -26 -84 -37 -103 -38 -160 -11 l-50 24 34 1 c46 1 73 27 60
59 -14 37 -12 41 33 73 23 17 50 47 59 66 l16 36 22 -36 c33 -52 47 -46 43 19
-1 18 0 18 10 -2 15 -30 20 -29 39 9 9 20 23 32 37 33 35 3 124 96 108 112 -3
3 -11 1 -18 -4 -7 -5 -21 -13 -31 -16 -15 -6 -16 -2 -11 33 8 49 -6 52 -38 10
-26 -36 -38 -38 -38 -6 0 27 15 41 45 41 11 0 25 11 32 25 9 18 13 20 13 8 0
-24 27 -23 40 2 6 11 16 20 22 20 7 0 7 -4 1 -12z m-415 -31 c17 -47 14 -56
-8 -28 -20 23 -27 61 -12 61 4 0 13 -15 20 -33z m-327 -30 c-8 -8 -11 -7 -11
4 0 20 13 34 18 19 3 -7 -1 -17 -7 -23z m-214 -49 c-3 -7 -5 -2 -5 12 0 14 2
19 5 13 2 -7 2 -19 0 -25z m796 -23 c-3 -9 -8 -14 -10 -11 -3 3 -2 9 2 15 9
16 15 13 8 -4z m-808 -107 c12 -34 22 -48 35 -48 22 0 37 37 21 53 -6 6 -11
15 -11 21 0 11 25 -15 58 -62 27 -38 20 -64 -9 -31 l-19 22 -6 -32 c-4 -17 -9
-31 -13 -31 -16 0 -101 163 -101 192 1 19 27 -30 45 -84z m765 35 c0 -6 -4
-14 -9 -18 -14 -8 -34 33 -26 52 5 14 7 14 20 -3 8 -10 15 -24 15 -31z m389
-20 c0 -25 -1 -25 -8 -8 -5 11 -7 23 -4 28 8 14 13 7 12 -20z m-108 -21 c7 10
9 10 9 1 0 -7 7 -13 15 -13 8 0 15 6 15 12 0 7 7 2 16 -10 13 -19 19 -21 30
-11 11 9 10 3 -3 -19 -16 -29 -16 -33 -1 -65 14 -28 15 -43 7 -74 -6 -21 -15
-42 -19 -47 -12 -13 -100 73 -100 98 0 11 6 32 13 46 30 57 29 60 -10 38 -20
-12 -38 -30 -41 -40 -9 -35 -27 -12 -29 38 l-3 49 16 -35 15 -35 14 25 c8 14
12 38 9 55 l-5 30 22 -28 c17 -22 24 -25 30 -15z m439 19 c-5 -11 -15 -23 -21
-27 -6 -3 -3 5 6 20 20 30 30 35 15 7z m-1230 -54 c0 -9 -36 9 -45 23 -3 6 -3
15 1 21 4 8 13 4 25 -12 10 -13 19 -28 19 -32z m968 6 c-6 -16 -8 -38 -5 -47
6 -16 10 -15 36 10 17 15 32 38 36 51 3 13 10 23 15 23 13 0 13 -17 -1 -25 -6
-4 -9 -22 -7 -40 3 -42 -1 -46 -54 -56 -24 -4 -55 -11 -70 -14 -21 -6 -27 -3
-34 17 -9 27 -6 59 7 73 7 7 8 4 4 -6 -4 -10 -1 -20 6 -25 12 -7 24 4 58 54
20 28 23 22 9 -15z m-568 14 c0 -19 -34 -57 -51 -57 -8 0 -23 7 -33 15 -17 13
-18 15 -2 21 9 3 22 1 30 -5 10 -8 15 -5 24 14 12 27 32 34 32 12z m-440 -58
c0 -9 -7 -20 -16 -23 -34 -13 -41 -6 -41 38 l0 44 29 -21 c15 -11 28 -28 28
-38z m100 32 c-5 -11 -7 -27 -4 -35 4 -10 1 -16 -9 -16 -8 0 -18 7 -21 16 -8
20 11 54 30 54 11 0 12 -4 4 -19z m206 -16 c21 -19 44 -35 52 -35 12 0 12 -2
1 -17 -8 -9 -14 -32 -14 -52 l0 -36 -70 -6 c-83 -8 -120 6 -140 54 -9 20 -14
25 -15 14 0 -10 5 -28 11 -40 12 -22 12 -22 -10 -3 -33 30 -24 67 24 94 18 10
18 11 2 12 -15 0 -16 3 -6 23 12 22 13 21 21 -11 l9 -33 32 23 c18 12 36 28
40 35 12 19 21 16 63 -22z m-527 0 c7 4 11 -8 11 -34 0 -49 8 -71 26 -71 8 0
14 -7 14 -16 0 -14 -4 -13 -32 4 -18 10 -31 25 -29 33 6 22 4 32 -13 74 -13
31 -13 36 -2 21 8 -10 19 -15 25 -11z m1411 -5 c-8 -5 -19 -10 -25 -10 -5 0
-3 5 5 10 8 5 20 10 25 10 6 0 3 -5 -5 -10z m90 1 c0 -5 -7 -12 -16 -15 -14
-5 -15 -4 -4 9 14 17 20 19 20 6z m-1560 -34 c0 -5 -5 -5 -11 -1 -9 5 -10 -1
-5 -20 8 -32 0 -33 -31 -4 -26 24 -30 40 -9 32 8 -3 20 1 27 9 14 14 28 6 29
-16z m1428 21 c8 -10 4 -13 -18 -13 -22 0 -26 3 -18 13 6 6 14 12 18 12 4 0
12 -6 18 -12z m-1128 -48 c0 -22 -22 -36 -40 -25 -8 5 -6 13 6 26 22 25 34 24
34 -1z m1330 -151 c0 -6 -4 -7 -10 -4 -5 3 -10 11 -10 16 0 6 5 7 10 4 6 -3
10 -11 10 -16z m-1650 1 c0 -5 -5 -10 -11 -10 -5 0 -7 5 -4 10 3 6 8 10 11 10
2 0 4 -4 4 -10z m1480 -35 c14 -19 14 -19 -2 -6 -10 7 -18 18 -18 24 0 6 1 8
3 6 1 -2 9 -13 17 -24z m-483 -205 c32 -20 72 -33 122 -41 l74 -11 69 36 c55
29 73 34 89 26 21 -12 25 -40 9 -56 -6 -6 -11 -29 -13 -52 -2 -39 -4 -42 -30
-42 -16 0 -26 -4 -22 -9 3 -5 29 -9 58 -8 40 1 63 -5 88 -21 30 -19 32 -22 11
-22 -12 0 -38 -6 -56 -14 -33 -14 -34 -15 -32 -73 l3 -59 -45 23 c-55 28 -120
30 -238 7 -112 -20 -183 -9 -222 37 -34 41 -51 70 -52 90 0 32 110 219 130
219 5 0 30 -13 57 -30z m439 -46 c16 -4 23 -16 27 -47 3 -23 4 -44 1 -46 -2
-2 -15 6 -29 19 l-25 23 0 -21 c0 -23 -8 -27 -25 -14 -20 14 -4 92 18 92 7 0
22 -3 33 -6z m421 -66 c1 -35 -3 -69 -9 -76 -6 -6 -14 -27 -18 -45 l-8 -32 -1
40 c-1 31 -4 37 -12 25 -9 -12 -10 -11 -4 5 4 11 9 34 12 52 4 25 2 31 -12 30
-9 -1 -24 9 -33 23 l-17 24 25 -17 c35 -24 58 -21 66 8 3 14 7 25 8 25 1 0 2
-28 3 -62z m-329 -70 c-2 -6 -10 -14 -16 -16 -7 -2 -10 2 -6 12 7 18 28 22 22
4z m522 -73 c0 -5 -5 -3 -10 5 -5 8 -10 20 -10 25 0 6 5 3 10 -5 5 -8 10 -19
10 -25z m280 -110 c0 -18 -50 -21 -68 -3 -13 13 -15 8 -6 -16 3 -8 21 -18 38
-22 l33 -6 -9 -50 c-6 -35 -6 -54 2 -63 7 -8 9 -24 5 -36 -5 -13 -2 -24 6 -29
10 -7 9 -20 -5 -67 -17 -54 -20 -59 -49 -61 -17 -2 -35 -6 -41 -11 -26 -20
-61 -20 -93 0 -33 20 -43 51 -22 65 8 5 8 9 -1 14 -9 5 -9 9 -1 14 6 4 11 2
11 -3 0 -20 56 -11 78 12 20 21 21 29 13 71 -11 60 -28 80 -23 27 3 -31 0 -42
-19 -55 -31 -22 -47 -20 -70 7 -36 40 -50 83 -38 114 27 71 88 117 103 78 8
-21 28 -18 50 9 23 28 106 37 106 11z m116 -73 c-10 -64 -90 -100 -92 -42 -1
14 -5 38 -9 54 -7 25 -6 28 13 22 12 -4 26 -1 35 8 8 8 17 12 21 9 3 -4 6 2 6
13 0 16 2 16 16 -5 11 -16 15 -34 10 -59z m49 38 c-10 -11 -20 -18 -23 -15 -7
6 18 35 31 35 5 0 2 -9 -8 -20z m-2107 -36 c-11 -24 -13 -24 -25 -8 -10 14
-10 19 5 30 24 18 33 8 20 -22z m192 -27 c0 -2 -9 -12 -20 -22 -24 -21 -27
-14 -4 9 15 15 24 20 24 13z m-213 -64 c-3 -10 -5 -2 -5 17 0 19 2 27 5 18 2
-10 2 -26 0 -35z m2112 -33 c12 -27 27 -50 34 -50 7 0 33 -16 59 -35 52 -38
88 -100 81 -138 -3 -13 3 -39 11 -56 9 -17 14 -36 11 -41 -12 -19 -54 -9 -97
23 -78 59 -99 68 -146 69 -26 1 -55 -1 -66 -3 -30 -6 -41 22 -30 78 6 30 14
47 22 45 7 -1 15 5 18 13 4 10 20 15 44 15 43 0 53 8 39 30 -5 8 -9 10 -9 4 0
-7 -8 -14 -18 -16 -47 -13 -99 44 -71 78 16 19 46 32 75 33 16 1 27 -11 43
-49z m-1983 -12 c-10 -52 -26 -58 -26 -10 0 32 4 42 16 42 13 0 15 -7 10 -32z
m2203 20 c-4 -23 13 -48 32 -48 13 0 19 -7 19 -21 0 -16 -4 -19 -22 -14 -22 7
-40 23 -65 61 -10 15 -10 13 0 -11 6 -16 20 -36 30 -44 17 -12 26 -28 41 -78
7 -21 4 -23 -31 -23 -33 0 -41 5 -61 38 -13 20 -42 50 -63 66 -38 27 -39 29
-23 47 11 13 24 17 41 13 13 -4 29 -2 36 4 6 6 23 12 37 15 14 2 26 5 28 6 2
0 2 -5 1 -11z m101 -28 c20 -20 15 -25 -14 -14 -9 3 -16 12 -16 20 0 19 6 18
30 -6z m-2600 -16 c0 -8 4 -13 8 -10 11 7 30 -6 33 -24 4 -24 -12 -70 -25 -70
-6 0 -22 7 -34 16 -22 15 -22 17 -6 35 21 23 13 35 -14 20 -16 -8 -21 -7 -26
5 -4 9 3 18 19 24 14 5 25 14 25 20 0 6 5 8 10 5 6 -3 10 -13 10 -21z m2604
-69 c-25 -19 -40 -19 -24 0 7 8 20 15 28 15 13 0 12 -3 -4 -15z m-2914 -9 c0
-3 -4 -8 -10 -11 -5 -3 -10 -1 -10 4 0 6 5 11 10 11 6 0 10 -2 10 -4z m1340
-11 c-7 -9 -15 -13 -17 -11 -7 7 7 26 19 26 6 0 6 -6 -2 -15z m-1405 -23 c-3
-3 -11 0 -18 7 -9 10 -8 11 6 5 10 -3 15 -9 12 -12z m-59 -64 c6 -21 34 -25
34 -4 0 8 7 16 15 20 12 4 15 -3 15 -29 0 -19 6 -38 14 -42 8 -4 18 -20 21
-35 7 -26 5 -28 -22 -28 -24 0 -30 6 -38 32 -6 20 -23 41 -42 53 -33 21 -44
52 -18 52 8 0 17 -9 21 -19z m131 -13 c-7 -13 -14 -20 -15 -14 -5 14 6 39 17
39 5 0 4 -11 -2 -25z m-117 -82 c0 -13 -46 -30 -56 -20 -3 3 -2 21 2 42 l6 36
24 -22 c13 -12 24 -28 24 -36z m1827 1 c40 -24 75 -44 79 -44 3 0 42 -27 87
-59 45 -32 101 -68 124 -80 53 -26 58 -35 37 -67 l-18 -26 -17 34 c-17 31 -18
32 -19 8 -1 -35 -15 -56 -25 -39 -6 8 -13 -5 -23 -37 -14 -47 -15 -48 -25 -24
-8 20 -11 22 -14 8 -2 -9 1 -27 7 -38 18 -34 5 -34 -24 1 -27 31 -44 34 -33 5
10 -25 88 -76 116 -76 20 0 23 2 11 10 -8 5 -11 12 -8 16 4 4 22 -10 40 -30
17 -20 38 -36 46 -36 11 0 12 3 4 13 -9 10 -3 16 25 26 27 10 38 11 41 2 2 -6
12 -11 23 -11 32 0 22 -15 -26 -38 -25 -12 -48 -29 -51 -37 -9 -23 -22 -18
-41 18 -17 32 -19 33 -35 15 -10 -10 -13 -18 -7 -18 6 0 32 -18 59 -41 35 -30
46 -45 43 -60 -8 -29 -59 -52 -102 -46 -99 15 -147 29 -185 53 -53 36 -122 42
-218 20 -40 -10 -83 -21 -95 -26 -19 -8 -26 -5 -39 15 -20 30 -14 61 10 58 11
-1 25 5 33 13 8 8 24 14 36 14 43 0 65 12 73 38 l7 27 10 -33 c12 -38 43 -50
87 -32 36 15 38 23 7 37 -23 11 -30 43 -14 59 13 13 7 24 -13 24 -14 0 -18 5
-13 17 5 12 3 14 -7 8 -10 -6 -12 -4 -7 9 6 15 5 15 -17 -1 -22 -17 -47 -56
-60 -95 -6 -19 -66 -54 -66 -39 0 5 5 13 11 16 6 4 7 14 4 24 -4 9 -9 33 -11
54 -5 34 -3 38 13 33 22 -7 39 5 76 56 32 44 34 52 7 45 -11 -3 -20 0 -20 5 0
6 -5 6 -14 -1 -12 -10 -19 -6 -37 18 -19 26 -24 28 -34 15 -18 -25 -65 -8 -65
24 0 24 -1 25 -13 7 -16 -21 -22 -14 -31 37 -9 48 -22 55 -39 21 l-15 -27 -23
45 c-26 49 -33 39 -27 -37 4 -49 -1 -51 -61 -34 -19 5 -36 8 -39 6 -2 -2 10
-19 26 -38 29 -31 34 -33 90 -30 52 2 60 0 70 -20 19 -39 18 -61 -4 -85 -26
-28 -34 -29 -34 -3 0 11 -5 20 -11 20 -7 0 -17 8 -24 17 -11 15 -13 15 -19 -5
-9 -27 -22 -28 -28 -4 -7 25 -46 26 -53 1 -4 -11 -11 -17 -16 -14 -5 4 -9 1
-9 -6 0 -8 -7 -6 -19 5 -13 12 -21 14 -26 6 -5 -8 -11 -8 -21 1 -12 9 -14 5
-14 -25 0 -20 -4 -36 -10 -36 -5 0 -10 5 -10 10 0 6 -4 10 -10 10 -5 0 -10
-13 -10 -30 0 -16 -4 -30 -10 -30 -15 0 -12 20 10 65 11 22 19 48 20 57 0 10
9 40 20 68 11 28 20 70 20 93 0 35 6 49 30 72 16 16 28 31 25 33 -8 9 40 39
72 46 19 5 47 2 67 -5 30 -11 38 -10 71 11 50 31 86 39 175 38 70 -1 79 -3
147 -44z m-1820 -59 c9 -25 -2 -27 -22 -5 -17 18 -17 20 -1 20 9 0 19 -7 23
-15z m3419 -100 c-9 -9 -16 -13 -16 -8 0 12 22 34 28 28 2 -2 -3 -11 -12 -20z
m-3259 -50 c-12 -63 -29 -71 -66 -31 l-23 25 21 -6 c17 -4 24 0 28 16 3 11 12
21 19 21 8 0 14 7 14 15 0 8 4 15 8 15 5 0 4 -25 -1 -55z m3082 -12 c0 -25 -1
-25 -8 -8 -5 11 -7 23 -4 28 8 14 13 7 12 -20z m-3179 -44 c0 -22 -24 -36 -79
-45 -28 -5 -41 -3 -41 5 0 7 8 11 18 9 13 -2 17 3 15 25 -2 30 0 31 28 16 17
-9 21 -7 26 10 4 17 8 19 19 10 8 -6 14 -20 14 -30z m2228 1 c0 -22 -3 -42 -7
-44 -4 -3 -8 15 -9 39 0 25 3 45 8 45 4 0 8 -18 8 -40z m-2355 0 c4 -17 3 -19
-9 -9 -8 6 -14 18 -14 26 0 20 16 8 23 -17z m3477 -11 c-7 -11 -14 -18 -17
-15 -3 3 0 12 7 21 18 21 23 19 10 -6z m-278 -42 c2 -11 8 -22 15 -24 7 -3 9
3 6 16 -7 27 14 28 22 2 3 -11 12 -18 19 -15 8 3 21 -5 30 -17 15 -23 75 -34
87 -16 3 4 17 8 30 8 70 -1 84 1 99 14 15 13 19 12 42 -13 14 -16 28 -40 31
-55 4 -14 16 -28 26 -32 10 -3 22 -16 25 -28 8 -34 44 -67 72 -67 14 0 40 -12
59 -27 47 -38 59 -102 24 -139 -25 -26 -45 -30 -82 -13 -35 16 -105 -5 -119
-36 -11 -25 -50 -37 -82 -25 -12 4 -52 36 -89 70 l-68 63 21 21 c11 12 20 27
20 33 0 20 30 7 60 -25 36 -40 77 -42 117 -8 28 24 27 50 -1 27 -11 -9 -25 -9
-63 0 -66 16 -85 34 -71 65 10 20 8 29 -9 52 -11 15 -28 26 -37 24 -9 -2 -15
1 -14 5 5 14 -47 70 -60 65 -29 -9 -11 -42 38 -67 45 -23 50 -29 50 -58 0 -24
-9 -41 -30 -62 -16 -16 -30 -35 -30 -43 0 -9 -12 -3 -34 16 -19 17 -41 34 -49
39 -11 7 -12 21 -3 81 l10 73 -42 40 c-24 22 -40 44 -37 49 3 6 -1 10 -9 10
-16 0 -21 12 -10 23 11 11 33 -5 36 -26z m-1517 -31 c-5 -26 -12 -36 -26 -36
-20 0 -26 15 -9 25 6 3 10 16 10 29 0 27 10 40 23 27 4 -4 5 -25 2 -45z m1453
29 c20 -11 29 -21 25 -31 -3 -8 3 -24 12 -34 18 -19 17 -20 -7 -20 -36 0 -56
20 -60 63 -2 20 -3 37 -3 37 1 0 16 -7 33 -15z m-551 -42 c-3 -10 -5 -4 -5 12
0 17 2 24 5 18 2 -7 2 -21 0 -30z m-930 -54 c25 -9 32 -39 9 -39 -7 0 -19 -6
-25 -14 -7 -8 -33 -20 -58 -28 -28 -8 -54 -24 -66 -40 -25 -33 -45 -35 -80 -8
-33 26 -31 57 4 65 25 6 67 44 81 75 5 12 7 11 7 -3 2 -34 35 -14 44 25 l9 37
26 -30 c14 -17 36 -35 49 -40z m898 -41 c20 9 23 9 18 -4 -3 -8 0 -20 6 -28 9
-11 7 -15 -9 -19 -11 -3 -18 -1 -15 4 3 4 -10 15 -30 23 -21 9 -34 20 -30 26
5 8 11 7 21 -1 11 -9 21 -9 39 -1z m-160 -7 c3 -5 21 -7 40 -4 27 4 36 2 41
-11 11 -28 80 -56 113 -46 28 8 30 6 36 -27 3 -20 3 -39 -2 -44 -5 -5 -42 -13
-83 -19 -68 -9 -78 -14 -105 -45 -30 -35 -54 -42 -102 -29 -28 8 -29 24 -2 75
11 23 16 38 11 35 -11 -6 -82 31 -82 42 0 13 15 29 35 40 19 9 26 4 64 -45 28
-37 47 -53 57 -49 9 3 21 6 28 6 7 0 18 11 24 25 6 14 8 25 3 25 -5 0 -12 -7
-15 -16 -3 -9 -15 -14 -27 -12 -28 4 -83 72 -76 92 7 18 32 21 42 7z m-1025
-17 c0 -8 -6 -11 -15 -8 -8 4 -15 9 -15 13 0 4 7 8 15 8 8 0 15 -6 15 -13z
m-50 -14 c0 -5 -8 -10 -17 -10 -15 0 -16 2 -3 10 19 12 20 12 20 0z m-86 -26
c3 -8 2 -12 -4 -9 -6 3 -10 10 -10 16 0 14 7 11 14 -7z m205 -46 c52 -45 64
-46 97 -13 14 14 26 25 28 25 6 0 25 -54 28 -80 3 -22 -1 -25 -34 -28 -21 -2
-38 -8 -38 -13 0 -10 -15 -31 -38 -52 -37 -34 -78 -81 -83 -95 -4 -10 -2 -28
3 -41 5 -13 7 -26 4 -28 -7 -7 -129 48 -163 73 -32 24 -33 28 -33 92 0 88 7
109 37 117 19 4 22 9 14 19 -14 17 7 27 37 19 27 -7 62 14 62 37 0 26 23 17
79 -32z m234 -1335 c-7 -2 -19 -2 -25 0 -7 3 -2 5 12 5 14 0 19 -2 13 -5z"/>
<path d="M720 3607 c0 -20 57 -70 70 -62 8 5 1 18 -21 41 -35 36 -49 42 -49
21z"/>
<path d="M3666 3490 c30 -17 53 -25 59 -19 16 16 -19 40 -65 44 l-44 4 50 -29z"/>
<path d="M3816 3469 c-28 -22 -35 -45 -11 -36 15 6 107 -16 137 -33 24 -14 32
-12 20 3 -5 6 -8 22 -6 34 3 18 -4 26 -32 38 -49 20 -76 19 -108 -6z"/>
<path d="M3694 3425 c-9 -23 24 -65 56 -72 16 -3 36 -15 43 -27 20 -30 112
-78 143 -74 l25 3 -22 24 c-16 17 -19 25 -9 31 8 5 3 10 -15 14 -38 10 -122
67 -136 94 -15 26 -76 32 -85 7z"/>
<path d="M3627 3407 c-8 -21 4 -47 30 -68 16 -12 17 -12 6 1 -6 8 -15 31 -20
50 -7 27 -11 31 -16 17z"/>
<path d="M3683 3313 c-22 -8 -14 -38 24 -97 35 -52 66 -79 43 -37 -5 11 -10
24 -10 30 0 12 27 10 48 -2 19 -13 14 0 -17 44 -17 22 -31 44 -33 48 -4 11
-40 20 -55 14z"/>
<path d="M3618 2214 c-9 -19 -9 -30 -1 -43 6 -10 10 -32 9 -50 -1 -21 2 -30
10 -27 17 6 25 -31 12 -59 -8 -19 -7 -27 8 -43 19 -20 19 -20 47 4 16 14 30
30 31 37 1 7 8 26 17 42 23 47 15 61 -31 57 -44 -4 -48 2 -24 36 15 21 14 22
-11 12 -36 -14 -35 -14 -35 25 0 41 -16 46 -32 9z"/>
<path d="M3540 2040 c-22 -5 -23 -7 -7 -13 10 -4 26 -3 34 2 21 11 4 19 -27
11z"/>
</g>
</svg>
